<?xml version="1.0" encoding="utf-8"?>
<!-- Generator: Adobe Illustrator 27.5.0, SVG Export Plug-In . SVG Version: 6.00 Build 0)  -->
<svg version="1.1" xmlns="http://www.w3.org/2000/svg" xmlns:xlink="http://www.w3.org/1999/xlink" x="0px" y="0px"
	 viewBox="0 0 750 500" style="enable-background:new 0 0 750 500;" xml:space="preserve">
<g id="BACKGROUND">
	<rect y="0.078" style="fill:#FFFFFF;" width="750" height="500"/>
</g>
<g id="OBJECTS">
	<g id="BACK">
		<path style="fill:none;stroke:#FFF6CF;stroke-width:2;stroke-miterlimit:10;" d="M76.51,107.305h-47.97
			c-0.986,0-1.786-0.8-1.786-1.786v-9.617c0-0.987,0.8-1.786,1.786-1.786h47.97c0.986,0,1.786,0.8,1.786,1.786v9.617
			C78.296,106.505,77.496,107.305,76.51,107.305z"/>
		<path style="fill:none;stroke:#FFF6CF;stroke-width:2;stroke-miterlimit:10;" d="M223.11,44.347h-47.97
			c-0.986,0-1.786-0.8-1.786-1.786v-9.617c0-0.987,0.8-1.786,1.786-1.786h47.97c0.987,0,1.786,0.8,1.786,1.786v9.617
			C224.897,43.548,224.097,44.347,223.11,44.347z"/>
		<path style="fill:none;stroke:#FFF6CF;stroke-width:2;stroke-miterlimit:10;" d="M355.9,458.42h-47.97
			c-0.986,0-1.786-0.8-1.786-1.786v-9.617c0-0.987,0.8-1.786,1.786-1.786h47.97c0.986,0,1.786,0.8,1.786,1.786v9.617
			C357.686,457.62,356.886,458.42,355.9,458.42z"/>
		<path style="fill:#EAEAEA;" d="M357.724,206.843h-47.97c-0.987,0-1.786-0.8-1.786-1.786v-9.617c0-0.987,0.8-1.786,1.786-1.786
			h47.97c0.986,0,1.786,0.8,1.786,1.786v9.617C359.511,206.043,358.711,206.843,357.724,206.843z"/>
		<path style="fill:#EAEAEA;" d="M695.728,310.224h-47.97c-0.987,0-1.786-0.8-1.786-1.786v-9.617c0-0.987,0.8-1.786,1.786-1.786
			h47.97c0.987,0,1.786,0.8,1.786,1.786v9.617C697.515,309.424,696.715,310.224,695.728,310.224z"/>
		<path style="fill:#EAEAEA;" d="M721.5,330.304h-47.97c-0.986,0-1.786-0.8-1.786-1.786v-9.617c0-0.987,0.8-1.786,1.786-1.786h47.97
			c0.987,0,1.786,0.8,1.786,1.786v9.617C723.286,329.504,722.486,330.304,721.5,330.304z"/>
		<path style="fill:#EAEAEA;" d="M501.617,394.32h-47.97c-0.986,0-1.786-0.8-1.786-1.786v-9.617c0-0.987,0.8-1.786,1.786-1.786
			h47.97c0.987,0,1.786,0.8,1.786,1.786v9.617C503.403,393.52,502.603,394.32,501.617,394.32z"/>
		<path style="fill:#EAEAEA;" d="M439.086,147.101h-47.97c-0.987,0-1.786-0.8-1.786-1.786v-9.617c0-0.986,0.8-1.786,1.786-1.786
			h47.97c0.987,0,1.786,0.8,1.786,1.786v9.617C440.873,146.301,440.073,147.101,439.086,147.101z"/>
		<path style="fill:none;stroke:#FFF6CF;stroke-width:2;stroke-miterlimit:10;" d="M105.656,413.167h-47.97
			c-0.986,0-1.786-0.8-1.786-1.786v-9.617c0-0.987,0.8-1.786,1.786-1.786h47.97c0.987,0,1.786,0.8,1.786,1.786v9.617
			C107.443,412.367,106.643,413.167,105.656,413.167z"/>
		<path style="fill:none;stroke:#FFF6CF;stroke-width:2;stroke-miterlimit:10;" d="M391.632,226.582h-47.97
			c-0.986,0-1.786-0.8-1.786-1.786v-9.617c0-0.986,0.8-1.786,1.786-1.786h47.97c0.987,0,1.786,0.8,1.786,1.786v9.617
			C393.419,225.782,392.619,226.582,391.632,226.582z"/>
		<path style="fill:none;stroke:#FFF6CF;stroke-width:2;stroke-miterlimit:10;" d="M672.928,53.869h-47.97
			c-0.987,0-1.786-0.8-1.786-1.786v-9.617c0-0.986,0.8-1.786,1.786-1.786h47.97c0.987,0,1.786,0.8,1.786,1.786v9.617
			C674.714,53.069,673.915,53.869,672.928,53.869z"/>
	</g>
	<g id="PEOPLE">
		<path style="fill:#E5E5E5;" d="M50.531,59.732l2.732,138.086c0.145,2.975,2.654,5.282,5.631,5.178l179.164-2.755
			c2.96-0.103,5.294-2.553,5.256-5.514l4.248-136.088c-0.039-2.989-2.479-5.389-5.469-5.377L55.95,54.02
			C52.846,54.033,50.38,56.632,50.531,59.732z"/>
		<path style="fill:#FFD77D;" d="M52.531,57.732l2.732,138.086c0.145,2.975,2.654,5.282,5.631,5.178l179.164-2.755
			c2.96-0.103,5.294-2.553,5.256-5.514l4.248-136.088c-0.039-2.989-2.479-5.389-5.469-5.377L57.95,52.02
			C54.846,52.033,52.38,54.632,52.531,57.732z"/>
		<path style="fill:#EFBB54;" d="M176.19,196.625c-1.096-4.026-7.114-6.831-7.114-6.831v0l0,0c-2.054-1.11-5.657-2.517-9.034-3.74
			c-0.563-0.961-1.17-1.89-1.835-2.767c-0.298-0.393-0.656-0.757-1.058-1.099c9.869-2.984,16.055-10.752,4.618-24.469
			c0,0-0.027-0.061-0.081-0.16c0.291-6.115-0.261-12.535-1.072-17.559c-0.465-2.881-1.351-5.44-2.569-7.652
			c-2.34-7.482-9.176-9.67-11.757-10.236c0.127-0.338,0.237-0.705,0.32-1.113c1.395-6.796-10.553-10.632-9.238,0.767
			c0,0-2.631-2.192-4.494-1.973c-1.863,0.219,1.536,3.727,1.536,3.727s-9.889,2.362-9.165,8.47c0,0-0.197,0.286-0.494,0.794
			c-0.537,0.892-0.994,1.831-1.389,2.8c-0.065,0.154-0.129,0.314-0.193,0.477c-0.075,0.2-0.158,0.395-0.227,0.597
			c-0.436,1.194-0.833,2.563-1.078,4.059c0,0-4.974,2.247,1.17,11.261c-1.379-0.819-2.998-1.202-4.463-0.036
			c-3.399,2.705,0.236,9.675,5.974,8.488c0.382,3.244,1.134,7.201,2.588,10.899c-0.152,2.438-0.34,4.929-0.574,7.192
			c-13.839,1.139-27.006,4-27.921,5.131c-1.002,1.238-1.481,3.652-1.711,5.558c-1.094,0.546-5.138,2.693-6.955,5.471
			c-0.424,0.648-1.302,2.84-2.434,6.017l89.047-1.401C176.461,198.067,176.329,197.134,176.19,196.625z M163.803,189.035
			c-0.001,0-0.001-0.001-0.002-0.001C163.802,189.034,163.803,189.034,163.803,189.035L163.803,189.035z"/>
		<g>
			<path style="fill:#B2C466;" d="M257.878,259.148c0,0-9.895-36.807-5.365-44.19c4.53-7.382,7.215,44.19,7.215,44.19
				s-0.503-59.122,9.899-60.632c10.402-1.51-7.215,62.247-7.215,62.247"/>
			<path style="fill:#D5E286;" d="M258.2,256.185c0,0-6.376-30.908-4.698-31.579c1.678-0.671,5.453,31.579,5.453,31.579h3.164
				c0,0,1.534-43.408,4.47-43.408c2.936,0-3.44,43.408-3.44,43.408"/>
			<path style="fill:#F7544D;" d="M97.357,194.657c0,0,0.114-6.184,1.957-8.461c1.843-2.277,52.389-11.439,60.784-0.371
				c8.395,11.069,8.495,29.753,8.495,29.753"/>
			<polygon style="fill:#494948;" points="159.993,336.934 156.861,465.776 159.993,465.776 165.585,336.934 			"/>
			<polygon style="fill:#494948;" points="201.518,337.49 204.268,466.332 201.518,466.332 196.609,337.49 			"/>
			<polygon style="fill:#494948;" points="101.238,327.834 94.108,466.332 96.683,466.332 106.974,330.9 			"/>
			<path style="fill:#E04444;" d="M91.041,224.916c0,0-6.22,98.59,6.026,103.991c12.246,5.402,64.54,9.428,70.774,9.428
				c6.235,0,23.341-3.357,23.341-3.357"/>
			<path style="fill:#F7544D;" d="M170.093,333.244c-6.235,0-58.529-4.027-70.774-9.428c-10.236-4.515-7.571-74.124-6.42-96.858
				l-1.857-2.041c0,0-6.22,98.59,6.026,103.991c12.246,5.402,64.54,9.428,70.774,9.428c6.235,0,23.341-3.357,23.341-3.357
				l-3.642-4.003C181.985,331.956,173.955,333.244,170.093,333.244z"/>
			<path style="fill:#B2C466;" d="M171.189,192.466c0,0,6.141,2.862,7.259,6.971c1.297,4.764,2.091,44.293,2.65,47.496
				c0.559,3.204,21.538,20.716,21.538,20.716l-10.796,11.642l-18.194-11.189"/>
			<polygon style="fill:#494948;" points="216.235,284.981 223.912,466.332 227.176,466.209 223.912,284.981 			"/>
			<polygon style="fill:#545352;" points="266.632,284.981 274.266,466.332 277.338,466.332 274.64,284.981 			"/>
			<path style="fill:#B2C466;" d="M97.859,191.726c0,0-5.233,2.431-7.388,5.725c-2.155,3.293-15.669,45.209-16.649,59.703
				c-0.979,14.494,24.287,17.824,27.421-27.617"/>
			<path style="fill:#FFFFFF;" d="M146.91,123.215c0,0,11.863,1.342,13.625,13.255l-15.604-10.654"/>
			<path style="fill:#66482D;" d="M198.04,451.683c0,0,2.3,5.893,8.185,11.348l-1.005,2.727h-20.733c0,0,0.781-11.483,1.499-16.363"
				/>
			<path style="fill:#875F3E;" d="M206.225,463.031c-0.793-0.735-1.516-1.478-2.182-2.214c-10.546-1.264-16.478,4.941-16.478,4.941
				h17.655L206.225,463.031z"/>
			<polygon style="fill:#332A24;" points="184.056,465.435 205.938,465.22 205.436,466.332 184.056,466.081 			"/>
			<path style="fill:#66482D;" d="M246.931,441.513c0,0,7.522,5.847,19.341,5.089l0.134,3.99l-27.678,7.271
				c0,0-2.119-9.563-2.866-13.995"/>
			<path style="fill:#875F3E;" d="M253.522,453.977l12.884-3.385l-0.134-3.99c-3.873,0.249-7.274-0.218-10.111-0.95
				C255.271,447.619,253.923,450.977,253.522,453.977z"/>
			<polygon style="fill:#332A24;" points="238.395,458.268 267.063,450.804 267.132,449.641 238.2,457.578 			"/>
			<path style="fill:#B78D5F;" d="M137.817,290.284c0,0,63.895,9.099,81.923,30.458c17.926,28.214,29.303,121.102,29.303,121.102
				l-13.445,3.055c0,0-28.112-90.815-35.14-98.454c-7.028-7.639-42.779-20.259-42.779-20.259"/>
			<path style="fill:#A87747;" d="M200.458,346.445c2.322,2.524,6.947,14.132,12.098,28.541c1.918-25.236,2.862-49.413,0.712-60.134
				c-6.162-4.518-14.309-8.359-22.973-11.568c-13.732-2.163-31.797-3.539-47.722-4.402l15.105,27.304c0,0,7.874,2.78,16.957,6.519
				c6.259,0.07,10.368-0.009,10.368-0.009s0,1.554,0.025,4.534C191.865,340.405,197.967,343.737,200.458,346.445z"/>
			<path style="opacity:0.76;fill:none;stroke:#FFFFFF;stroke-width:0.5;stroke-linecap:round;stroke-miterlimit:10;" d="
				M207.31,335.627c0,0,22.917,74.863,30.862,104.198"/>
			<path style="fill:#B78D5F;" d="M101.585,295.682c0,0-3.972,22.729,14.973,29.393c18.945,6.664,64.474,5.787,64.474,5.787
				s0,46.61,4.056,120.963h15.478c0,0,16.827-133.226,6.744-143.92C197.227,297.21,101.585,295.682,101.585,295.682z"/>
			<g>
				<path style="fill:#D3A67A;" d="M179.748,330.862c0,0-1.733,0.033-4.656,0.037c2.041,0.003,3.635-0.009,4.656-0.02
					C179.748,330.874,179.748,330.862,179.748,330.862z"/>
				<g>
					<path style="fill:#D3A67A;" d="M207.31,307.905c-2.424-2.57-9.797-4.61-19.59-6.228c9.271,1.568,16.201,3.538,18.535,6.013
						c10.084,10.695-6.972,144.135-6.972,144.135h1.283C200.566,451.825,217.394,318.6,207.31,307.905z"/>
					<path style="fill:#D3A67A;" d="M101.581,295.706c3.99,0.08,16.996,0.354,32.577,1.111c-18.193-0.904-32.573-1.135-32.573-1.135
						S101.582,295.7,101.581,295.706z"/>
				</g>
			</g>
			<path style="fill:#FCB9A7;" d="M127.555,156.94c0,0-4.391-5.895-7.901-3.102c-4.088,3.253,1.792,12.558,9.408,7.148"/>
			<path style="fill:none;stroke:#FF765F;stroke-width:0.5;stroke-linecap:round;stroke-miterlimit:10;" d="M121.453,158.593
				c0,0,2.514-1.483,5.415,0"/>
			<path style="fill:#E5CFBA;" d="M129.039,182.922c0,0-23.123,6.801-28.864,9.95c-5.742,3.149,1.637,50.129,1.637,50.129
				s-3.194,52.711-1.243,55.887c2.919,4.754,70.887,2.248,74.524-0.53c2.037-0.572-6.428-51.441-1.673-64.653
				c0.267-17.313-1.411-36.943-2.56-38.24c-3.062-3.458-19.266-9.015-24.561-10.188"/>
			<path style="fill:#EB9A37;" d="M129.039,182.362c0,0-23.123,6.801-28.864,9.95c-5.742,3.149,1.637,50.129,1.637,50.129
				s-3.194,52.711-1.243,55.888c2.919,4.754,69.04,2.532,72.676-0.247c2.037-0.572-4.58-51.725,0.175-64.936
				c0.267-17.313-1.411-36.943-2.56-38.24c-3.062-3.458-19.266-9.015-24.561-10.188"/>
			<path style="fill:#FCB9A7;" d="M145.426,211.339c8.324-0.774,6.24-16.232,4.749-23.651c-0.145-0.719-0.682-1.292-1.387-1.492
				c-0.932-0.265-1.748-0.478-2.404-0.626c-0.059-0.013-0.114-0.023-0.174-0.031l-16.753-2.286
				c-0.276-0.038-0.549-0.018-0.815,0.061c-0.56,0.166-1.682,0.501-3.174,0.954c-1.133,0.344-1.712,1.611-1.219,2.688
				C127.646,194.371,136.73,212.148,145.426,211.339z"/>
			<path style="fill:#FCB9A7;" d="M128.955,160.407c0,0-0.34,15.68-1.584,24.101c0,0,9.398,19.033,16.192,19.128
				c6.794,0.096,4.095-18.841,4.095-18.841l1.627-8.421L128.955,160.407z"/>
			<path style="fill:#FCB9A7;" d="M162.554,141.654c2.088,12.926,2.508,34.91-8.352,38.12
				c-16.322,4.825-29.094-20.442-30.917-31.619c-1.824-11.177,5.759-21.716,16.936-23.539
				C151.397,122.792,160.587,129.472,162.554,141.654z"/>
			<path style="fill:none;stroke:#FF765F;stroke-width:0.5;stroke-linecap:round;stroke-miterlimit:10;" d="M154.108,143.463
				l4.414,10.513c0.39,0.93-0.165,1.985-1.153,2.19l-3.641,0.753"/>
			<path style="fill:none;stroke:#FFFFFF;stroke-width:0.25;stroke-linecap:round;stroke-miterlimit:10;" d="M132.282,241.723
				c0,0,15.694-5.359,38.468-7.273"/>
			<path style="fill:none;stroke:#FFFFFF;stroke-width:0.25;stroke-linecap:round;stroke-miterlimit:10;" d="M124.897,239.426
				c0,0,21.501-4.019,45.806-4.976"/>
			<path style="fill:none;stroke:#FFFFFF;stroke-width:0.25;stroke-linecap:round;stroke-miterlimit:10;" d="M140.322,216.886
				c0,0,10.462,3.828,12.631-7.017"/>
			<path style="fill:#EFEFEF;" d="M144.291,146.948c0,0,2.009-2.679,3.971-2.344C148.262,144.604,145.296,140.298,144.291,146.948z"
				/>
			<path style="fill:#EFEFEF;" d="M158.663,142.786c0,0,1.415-0.546,2.871,0.677C161.534,143.463,160.194,139.102,158.663,142.786z"
				/>
			<g>
				<linearGradient id="SVGID_1_" gradientUnits="userSpaceOnUse" x1="132.5127" y1="287.6075" x2="131.7891" y2="288.0978">
					<stop  offset="0" style="stop-color:#FFFFFF;stop-opacity:0"/>
					<stop  offset="1" style="stop-color:#FF765F"/>
				</linearGradient>
				<path style="fill:url(#SVGID_1_);" d="M131.836,287.825c0.132,0.303,0.284,0.334,0.444,0.171
					C132.133,287.94,131.985,287.884,131.836,287.825z"/>
			</g>
			<path style="fill:none;stroke:#FFFFFF;stroke-width:0.5;stroke-linecap:round;stroke-miterlimit:10;" d="M112.28,317.147
				c0,0,5.199-1.203,5.195-8.716"/>
			<path style="fill:none;stroke:#FFFFFF;stroke-width:0.5;stroke-linecap:round;stroke-miterlimit:10;" d="M120.53,317.147
				c0,0,31.168,6.563,68.141,6.868c0,0-3.361,78.225,0,123.448"/>
			<path style="fill:none;stroke:#FFFFFF;stroke-width:0.5;stroke-linecap:round;stroke-miterlimit:10;" d="M191.421,319.585
				c0,0-3.82,5.5-5.042,7.792c-1.222,2.292,3.102-4.736,7.051-5.347"/>
			<path style="fill:#FFFFFF;" d="M127.372,155.416c0,0,5.152-12.235,2.883-22.749c0,0,2.876-5.034,8.581-6.935
				c0,0,8.004,3.467,9.427-3.467c1.423-6.935-10.769-10.85-9.427,0.783c0,0-2.684-2.237-4.586-2.013
				c-1.901,0.224,1.568,3.803,1.568,3.803s-10.091,2.41-9.353,8.643c0,0-2.605,3.746-3.45,8.905c0,0-5.664,2.549,2.338,13.082
				c0,0-0.723,25.744,14.378,29.659s42.745-2.908,24.001-25.391c0,0-1.351-3.244-6.664-2.573
				c-5.313,0.671-14.988,8.165-20.245,7.382C131.565,163.762,127.372,155.416,127.372,155.416z"/>
			<path style="opacity:0.39;fill:#FF765F;" d="M143.373,139.322c0,0,11.374-1.678,14.226-3.943"/>
			<path style="opacity:0.39;fill:#FF765F;" d="M145.548,134.708c0,0,4.729-0.252,8.18-1.258"/>
			<path style="fill:#DDC7C5;" d="M150.056,163.217c0,0,3.458,0.916,7.18-1.716"/>
			<path style="fill:none;stroke:#332A24;stroke-width:0.5;stroke-linecap:round;stroke-miterlimit:10;" d="M145.548,153.087
				c0,0,2.572-6.718,5.648-1.741"/>
			<path style="fill:none;stroke:#332A24;stroke-width:0.5;stroke-linecap:round;stroke-miterlimit:10;" d="M158.97,150.191
				c0,0-0.171-2.535,1.321-2.703c1.492-0.168,2.146,2.703,2.146,2.703"/>
			<path style="fill:#E5CFBA;" d="M102.658,310.53c0,0,8.997,2.029,23.985,0c0,0-4.19-79.25-14.175-122.964"/>
			<path style="fill:#B2C466;" d="M127.602,182.79l-15.134,4.776c0,0,10.822,68.224,11.604,120.865c0,0-11.969,2.615-28.076,0
				c0,0,1.566-44.001,3.803-65.253c0,0-6.711-47.426-2.908-50.782c3.803-3.356,30.879-11.085,30.879-11.085L127.602,182.79z"/>
			<path style="fill:#E5CFBA;" d="M165.808,191.691l2.277,43.098l-2.277,0.14c0,0,5.231,25.98,6.019,63.673l1.417-0.521
				l-2.495-95.004L165.808,191.691z"/>
			<path style="fill:#8D9B3B;" d="M174.24,238.086c1.239-6.835-1.628-36.385-3.38-42.621c-1.911-1.424,0.329-2.999,0.329-2.999
				l2.457,75.636l4.745,2.918C176.892,256.264,173.571,241.777,174.24,238.086z"/>
			<path style="fill:#B2C466;" d="M151.467,186.169c0,0,6.695,2.188,14.341,5.522c0,0,6.612,81.096,7.436,106.391l6.846,1.756
				c0,0-6.692-55.494-5.35-62.9c1.342-7.406,0-41.186-2.013-43.423c-2.013-2.237-18.999-7.69-18.999-7.69L151.467,186.169z"/>
			<path style="fill:#FFFFFF;" d="M140.755,210.148l-9.414,6.521c0,0-16.54-32.859-3.74-33.879
				C127.602,182.79,121.199,191.435,140.755,210.148z"/>
			<path style="fill:#FFFFFF;" d="M150.407,207.268l6.829,3.026c0,0-2.86-20.678-8.449-24.097
				C148.787,186.196,152.024,193.392,150.407,207.268z"/>
			<polygon style="fill:#E5CFBA;" points="140.755,210.148 134.921,217.541 133.586,215.114 			"/>
			<polygon style="fill:#E5CFBA;" points="150.407,207.268 155.725,210.853 155.725,209.624 			"/>
			<path style="fill:#8D9B3B;" d="M171.189,215.914l0.671,13.758l4.278,0.755c0,0,0.587-8.557,0.419-14.849L171.189,215.914z"/>
			<path style="fill:#E5CFBA;" d="M160.993,281.796H97.157c-0.731,14.555-1.161,26.635-1.161,26.635
				c0.771,0.125,1.52,0.224,2.271,0.326l1.208-20.25h56.819l-0.258,41.966c2.381,0.105,4.685,0.185,6.875,0.246l1.328-42.213h14.54
				c-0.232-2.062-0.483-4.32-0.744-6.711H160.993z"/>
			<path style="fill:#9CAA4B;" d="M99.635,242.001c0,0,2.503-8.659,4.069-17.048c0,0-1.874,12.03-4.069,20.5l0.163-2.275
				L99.635,242.001z"/>
			<path style="fill:none;stroke:#FFFFFF;stroke-width:0.25;stroke-linecap:round;stroke-miterlimit:10;" d="M94.924,196.095
				c0,0,5.145,3.79,8.78,17.75"/>
			<g>
				<path style="fill:#C98C55;" d="M278.53,284.981H155.627v-6.711H278.18c0.752,0,1.277,0.744,1.026,1.453L278.53,284.981z"/>
				<path style="fill:#A37241;" d="M155.627,284.981H83.598l-1.862-5.243c-0.254-0.716,0.277-1.468,1.037-1.468h72.855V284.981z"/>
			</g>
			<polygon style="fill:#545352;" points="150.927,284.981 149.811,466.332 153.167,466.332 158.871,284.981 			"/>
			<polygon style="fill:#494948;" points="86.904,284.981 79.679,466.332 83.292,466.332 94.108,284.981 			"/>
			<path style="fill:#B2C466;" d="M94.924,252.133c0,0,13.087,6.711,34.059,20.973l2.766,5.164h-20.886
				c0,0-36.89-2.815-37.068-19.426"/>
			<path style="fill:#9CAA4B;" d="M98.825,254.252c0,0,14.299,8.119,23.193,14.2l-0.267-3.25c0,0-12.771-7.612-22.861-11.808
				L98.825,254.252z"/>
			<path style="fill:none;stroke:#FFFFFF;stroke-width:0.25;stroke-linecap:round;stroke-miterlimit:10;" d="M89.219,253.979
				c0,0,3.691-1.09,8.137-1.174"/>
			<path style="fill:#9CAA4B;" d="M115.505,278.27c0,0,11.8-12.509,15.38,0"/>
			<path style="fill:#8E8D8D;" d="M125.404,278.307h17.169C142.574,278.307,138.267,261.977,125.404,278.307z"/>
			<path style="fill:#B2B2B2;" d="M140.331,273.736c-3.49,0.395-4.514,4.572-4.514,4.572h6.756
				C142.574,278.307,141.908,275.803,140.331,273.736z"/>
			<path style="fill:#FCB9A7;" d="M122.672,273.24c0,0,4.298-4.789,11.569-4.789c4.027,0,8.735,4.473,6.94,6.577
				c0,0-2.724-3.656-5.363-3.712c0,0,0.668,1.852-2.192,3.362c-2.86,1.51-7.405,2.622-7.405,2.622l-0.816,1.007l-8.837-0.033
				C116.567,278.274,117.758,275.443,122.672,273.24z"/>
			<g>
				<path style="fill:#8E8D8D;" d="M181.098,272.745h-32.495c-0.443,0-0.802,0.359-0.802,0.802v2.751
					c0,1.109,0.899,2.009,2.009,2.009h31.289V272.745z"/>
				<path style="fill:#7F7E7E;" d="M181.098,272.745h54.95v4.759c0,0.443-0.359,0.803-0.803,0.803h-54.147V272.745z"/>
				<path style="fill:#8E8D8D;" d="M189.979,218.94l-1.888-0.13c-0.741-0.051-1.384,0.508-1.435,1.249l-3.682,53.354l3.23,0.223
					L189.979,218.94z"/>
				<path style="fill:#B2B2B2;" d="M243.418,222.628l-53.439-3.688l-3.775,54.696l51.835,0.102c0.441,0.001,0.813-0.331,0.861-0.77
					l5.408-49.276C244.367,223.149,243.963,222.665,243.418,222.628z"/>
			</g>
			<path style="fill:#E5E4E3;" d="M219.249,246.933c0,2.872-1.602,5.2-3.579,5.2s-3.579-2.328-3.579-5.2s1.603-5.2,3.579-5.2
				S219.249,244.061,219.249,246.933z"/>
			<path style="fill:#7F7E7E;" d="M175.233,275.611c0,0.51-0.591,0.923-1.321,0.923c-0.73,0-1.321-0.413-1.321-0.923
				c0-0.51,0.592-0.923,1.321-0.923C174.641,274.689,175.233,275.102,175.233,275.611z"/>
			<path style="fill:#7F7E7E;" d="M169.915,275.611c0,0.51-0.592,0.923-1.321,0.923c-0.73,0-1.321-0.413-1.321-0.923
				c0-0.51,0.592-0.923,1.321-0.923C169.323,274.689,169.915,275.102,169.915,275.611z"/>
			<polygon style="fill:#E5CFBA;" points="150.927,284.981 150.917,286.643 158.785,287.736 158.871,284.981 			"/>
			<polygon style="fill:#E5CFBA;" points="86.904,284.981 86.684,290.502 93.548,294.37 94.108,284.981 			"/>
			<polyline style="fill:#444443;" points="150.093,272.731 149.811,272.004 183.071,272.004 183.02,272.745 150.093,272.731 			"/>
			<polygon style="fill:#E5CFBA;" points="217.315,310.507 224.406,312.44 223.912,284.981 216.235,284.981 			"/>
			<polygon style="fill:#E5CFBA;" points="266.632,284.981 266.781,288.533 274.719,290.284 274.64,284.981 			"/>
			<path style="fill:none;stroke:#FFFFFF;stroke-width:0.25;stroke-linecap:round;stroke-miterlimit:10;" d="M140.322,277.093
				c0,0,12.329,1.298,11.841-4.383c-0.696-8.089-5.411-13.442-2.352-15.555c6.072-4.194,5.236,18.875,18.782,18.456"/>
			<path style="fill:none;stroke:#FFFFFF;stroke-width:0.25;stroke-linecap:round;stroke-miterlimit:10;" d="M148.22,256.316
				c0,0-1.636,1.93-0.419,5.201"/>
			<polygon style="fill:#F7544D;" points="249.043,252.133 251.657,278.27 269.106,278.27 270.675,252.877 			"/>
			<polygon style="fill:#E04444;" points="270.384,257.59 270.469,256.214 249.307,254.779 249.455,256.254 			"/>
			<polygon style="fill:#E04444;" points="270.234,260.014 270.319,258.636 249.552,257.229 249.7,258.702 			"/>
		</g>
		<path style="fill:#EFBB54;" d="M248.66,85.54l-26.089,1.099c-1.598,0.067-2.842,1.411-2.788,3.009l2.191,64.198
			c0.053,1.543,1.3,2.776,2.843,2.812l21.607,0.497L248.66,85.54z"/>
		<path style="fill:#FFF6CF;" d="M272.765,156.154l-46.157-1.062c-1.543-0.036-2.791-1.269-2.843-2.812l-2.191-64.198
			c-0.055-1.598,1.19-2.941,2.788-3.009l50.536-2.13c1.692-0.071,3.088,1.311,3.033,3.004l-2.188,67.39
			C275.69,154.934,274.362,156.19,272.765,156.154z"/>
		<g>
			<path style="fill:#EDE8E4;" d="M272.764,156.179l-30.832-0.589l-15.423-0.293c-1.389-0.043-2.67-1.133-2.908-2.514
				c-0.127-1.347-0.104-2.586-0.164-3.884l-0.241-7.706l-0.957-30.823l-0.529-15.41l-0.141-3.852l-0.071-1.926
				c0-0.635-0.118-1.288,0.052-1.952c0.31-1.315,1.597-2.307,2.941-2.289l3.851-0.172l30.807-1.39l15.405-0.657
				c0.635-0.061,1.393,0.026,1.989,0.378c0.61,0.333,1.098,0.879,1.373,1.517c0.135,0.321,0.217,0.662,0.246,1.009
				c0.016,0.359-0.007,0.663-0.014,0.988l-0.062,1.926l-0.246,7.706c-0.305,10.275-0.699,20.547-1.089,30.819l-0.569,15.409
				l-0.281,7.704l-0.07,1.926c-0.047,0.639,0.015,1.29-0.156,1.926C275.342,155.304,274.072,156.232,272.764,156.179z
				 M272.765,156.129c1.286,0.042,2.519-0.88,2.832-2.122c0.16-0.612,0.096-1.269,0.137-1.908l0.055-1.927l0.219-7.706l0.432-15.413
				c0.277-10.276,0.551-20.551,0.913-30.824l0.254-7.705l0.064-1.926c0.034-0.66,0.06-1.244-0.192-1.794
				c-0.466-1.107-1.669-1.786-2.905-1.61l-15.405,0.642l-30.814,1.207l-3.852,0.153c-1.254-0.022-2.426,0.882-2.724,2.093
				c-0.161,0.592-0.053,1.243-0.055,1.886l0.061,1.926l0.122,3.853l0.522,15.41l1.147,30.817l0.285,7.704
				c0.064,1.267,0.06,2.607,0.178,3.813c0.211,1.176,1.289,2.13,2.493,2.176l15.407,0.425L272.765,156.129z"/>
		</g>
		<path style="fill:#EFBB54;" d="M65.517,68.347l3.059,47.763c0.081,1.256,1.135,2.226,2.394,2.202l55.786-1.086
			c1.281-0.025,2.307-1.071,2.307-2.352V65.506c0-1.341-1.12-2.411-2.46-2.35l-58.845,2.69
			C66.443,65.907,65.433,67.034,65.517,68.347z"/>
		<polygon style="fill:#EFBB54;" points="171.529,80.63 170.026,105.047 197.988,108.021 201.143,82.997 		"/>
		<polygon style="fill:#EFBB54;" points="69.615,124.319 118.315,123.215 118.315,127.097 69.615,128.515 		"/>
		<polygon style="fill:#EFBB54;" points="69.615,134.923 111.746,133.82 111.746,137.702 69.615,139.12 		"/>
		<polygon style="fill:#EFBB54;" points="69.615,145.528 92.88,144.425 92.88,148.307 69.615,149.725 		"/>
		<polygon style="fill:#EFBB54;" points="69.615,155.608 113.461,154.505 113.461,158.387 69.615,159.804 		"/>
		<path style="fill:#F7544D;" d="M251.029,90.633c0,0.81-0.657,1.467-1.466,1.467c-0.81,0-1.467-0.657-1.467-1.467
			c0-0.81,0.657-1.466,1.467-1.466C250.373,89.167,251.029,89.823,251.029,90.633z"/>
		<path style="fill:#F7544D;" d="M61.238,59.538c0,0.81-0.656,1.466-1.466,1.466c-0.81,0-1.466-0.657-1.466-1.466
			c0-0.81,0.657-1.466,1.466-1.466C60.582,58.071,61.238,58.728,61.238,59.538z"/>
		<circle style="fill:#F7544D;" cx="242.502" cy="59.538" r="1.466"/>
		<polygon style="fill:#F7E494;" points="228.335,101.203 230.013,129.39 271.623,130.565 272.629,98.351 		"/>
		<polyline style="fill:#F7E494;" points="270.465,135.598 269.274,143.987 231.02,143.987 230.349,134.592 		"/>
		<polygon style="opacity:0.57;fill:#FFFFFF;" points="186.256,74.883 185.585,85.789 189.276,86.376 190.367,75.555 		"/>
		<path style="fill:#E5E4E3;" d="M52.525,466.332h658.25C710.775,466.332,408.314,479.625,52.525,466.332z"/>
		<g>
			<path style="fill:#E5E5E5;" d="M590.367,150.478l-121.352,0.64c-4.555,0.102-8.41-3.343-8.819-7.881l-4.673-83.09
				c-0.471-5.228,3.779-9.67,9.022-9.43l128.127-0.044c4.805,0.22,8.51,4.313,8.253,9.116l-2.103,82.494
				C598.58,146.805,594.895,150.377,590.367,150.478z"/>
			<path style="fill:#545352;" d="M595.149,347.609l1.229,4.505c0,0,14.453,1.689,29.282,0l1.314-6.694"/>
			<polyline style="fill:#545352;" points="607.641,349.011 609.159,466.286 613.188,466.286 614.273,346.858 			"/>
			<path style="fill:#B2C466;" d="M584.399,349.011c0,0,52.896,3.909,64.348-9.634c11.452-13.543-0.387-115.561-0.387-115.561
				h-15.473"/>
			<path style="fill:#9CAA49;" d="M579.604,344.317c0,0,52.896,3.909,64.348-9.634c11.452-13.543-0.387-115.561-0.387-115.561
				h-15.473"/>
			<path style="fill:#E5E5E5;" d="M701.664,190.449l-57.509-1.752c-2.212-0.067-3.991-1.841-4.066-4.052l-3.717-110.024
				c-0.082-2.417,1.891-4.402,4.309-4.336l64.013,1.762c2.313,0.064,4.138,1.988,4.079,4.301l-2.787,110.014
				C705.928,188.687,703.989,190.52,701.664,190.449z"/>
			<path style="fill:#FFD77D;" d="M703.664,188.449l-57.509-1.752c-2.212-0.067-3.991-1.841-4.066-4.052l-3.717-110.024
				c-0.082-2.417,1.891-4.402,4.309-4.336l64.013,1.762c2.313,0.064,4.138,1.988,4.079,4.301l-2.787,110.014
				C707.928,186.687,705.989,188.52,703.664,188.449z"/>
			<path style="fill:#FFF6CF;" d="M592.367,148.478l-121.352,0.64c-4.555,0.102-8.41-3.343-8.819-7.881l-4.673-83.09
				c-0.471-5.228,3.779-9.67,9.022-9.43l128.127-0.044c4.805,0.22,8.51,4.313,8.253,9.116l-2.103,82.494
				C600.58,144.805,596.895,148.377,592.367,148.478z"/>
			<path style="fill:#F7E494;" d="M592.225,140.47H476.06c-1.631,0-2.997-1.275-3.109-2.902l-1.64-23.659
				c-0.059-0.867,0.232-1.696,0.823-2.333c0.59-0.637,1.393-0.992,2.262-0.999l118.627-0.956c0.841,0.013,1.659,0.327,2.257,0.941
				c0.599,0.614,0.912,1.423,0.884,2.28l-0.824,24.615C595.283,139.146,593.915,140.47,592.225,140.47z M593.049,110.621
				c-0.006,0-0.012,0-0.017,0l-118.627,0.956c-0.59,0.005-1.135,0.246-1.536,0.679c-0.4,0.433-0.6,0.996-0.559,1.585l1.64,23.659
				c0.076,1.105,1.004,1.971,2.111,1.971h116.164c1.148,0,2.077-0.899,2.115-2.046l0.824-24.615c0.02-0.582-0.193-1.132-0.6-1.549
				C594.162,110.847,593.625,110.621,593.049,110.621z"/>
			<path style="fill:#F7E494;" d="M525.697,101.868l-51.836,0.274c-1.946,0.043-3.592-1.428-3.767-3.367l-1.996-35.493
				c-0.201-2.233,1.614-4.131,3.854-4.028l54.73-0.019c2.052,0.094,3.635,1.842,3.525,3.894l-0.898,35.238
				C529.205,100.299,527.631,101.825,525.697,101.868z"/>
			<polyline style="fill:#E6584E;" points="410.244,264.033 407.358,233.835 409.611,233.343 412.074,263.681 414.749,263.329 
				411.793,237.566 414.045,236.862 417.213,261.147 420.169,232.568 422.844,233.131 419.677,260.865 			"/>
			<path style="fill:#FCB9A7;" d="M551.798,209.48c0,0-4.42-7.813-11.255-8.306c-6.835-0.493,4.565,5.125,4.565,5.125
				s-8.233,3.674,1.199,9.305"/>
			<path style="fill:#E6584E;" d="M591.106,206.299c0,0-2.799,1.703-4.301,3.416c-1.502,1.713-11.699,23.399-12.732,24.432
				c-1.032,1.032-15.515-16.307-22.179-25.487l-6.786,6.334c0,0,20.866,38.454,28.37,39.051
				c7.503,0.598,17.198-15.056,17.198-15.056"/>
			<polygon style="fill:#545352;" points="473.878,278.733 477.995,466.038 481.386,466.038 479.884,278.733 			"/>
			<path style="fill:#444443;" d="M594.755,174.261l-0.202,2.548c0,0-0.708,0.508-1.651,0.248l0.289,2.97l-0.575,0.128
				c0,0-3.681-5.495-0.332-7.463C592.285,172.691,593.801,173.361,594.755,174.261z"/>
			<polygon style="fill:#444443;" points="505.743,269.805 506.145,267.077 560.796,269.805 561.277,271.731 			"/>
			<path style="fill:#F4B253;" d="M650.456,141.132c0-6.48-4.318-11.944-10.231-13.693l1.328,39.325
				c2.851-4.647,4.528-9.641,3.188-14.223C648.205,149.935,650.456,145.801,650.456,141.132z"/>
			<polygon style="fill:#8E8D8D;" points="502.474,274.495 503.896,268.842 562.907,270.528 564.803,274.62 			"/>
			<circle style="fill:#C6B3A7;" cx="633.244" cy="139.97" r="14.285"/>
			<circle style="fill:#E6584E;" cx="623.543" cy="151.675" r="14.285"/>
			<path style="fill:#C6B3A7;" d="M593.928,163.897c0,0-11.688-5.611-6.007-19.526c7.339-17.976,30.496-5.35,30.496-5.35
				s16.692-3.184,22.898,10.981c6.206,14.165-19.367,33.211-19.367,33.211s2.544,2.247,1.379,4.815
				c-1.165,2.568-9.297-4.708-9.297-4.708"/>
			<path style="fill:#DB8528;" d="M520.189,426.216c0,0,5.457,6.755,35.418,8.727c29.961,1.973,48.365-23.066,48.365-23.066
				L520.189,426.216z"/>
			<path style="fill:#FCB9A7;" d="M552.105,450.7c0,0-3.505,8.875-14.582,11.469l-0.981,3.168l27.371-0.561
				c0,0-0.54-10.197-1.007-14.855"/>
			<path style="fill:#B78D5F;" d="M551.138,465.038l-14.596,0.299l-0.544-2.4c-0.198-0.873,0.217-1.765,1.014-2.172
				c3.459-1.762,7.693-6.714,9.819-8.066C548.164,454.419,551.138,460.885,551.138,465.038z"/>
			<polygon style="fill:#332A24;" points="564.326,465.088 535.993,465.736 535.627,464.589 564.326,464.339 			"/>
			<path style="fill:#FCB9A7;" d="M582.503,446.72c0,0-0.6,7.623-10.175,13.765l0.391,5.227l25.614-9.665
				c0,0-3.913-9.432-5.908-13.667"/>
			<path style="fill:#B78D5F;" d="M587.372,459.575l-14.652,6.137l-0.69-1.093c-0.818-1.296-0.679-2.954,0.299-4.134
				c2.595-3.135,5.174-8.736,6.604-10.565C580.762,451.098,585.321,457.229,587.372,459.575z"/>
			<polygon style="fill:#332A24;" points="598.826,456.203 572.335,466.272 571.607,465.313 598.576,455.498 			"/>
			<path style="fill:#FCB9A7;" d="M630.792,300.92c0,0,3.8,21.923-14.323,28.35c-18.123,6.427-53.954,3.317-53.954,3.317
				s18.08,71.596,29.911,109.792l-9.923,4.34c0,0-62.497-123.695-52.851-134.01S630.792,300.92,630.792,300.92z"/>
			<path style="fill:#ED9583;" d="M618.478,328.444c0.182-0.084,0.358-0.171,0.534-0.258c0.489-0.241,0.959-0.494,1.41-0.759
				c0.136-0.08,0.278-0.156,0.411-0.238c0.553-0.342,1.079-0.702,1.576-1.077c0.112-0.085,0.214-0.174,0.323-0.26
				c0.39-0.308,0.763-0.626,1.118-0.953c0.131-0.121,0.263-0.242,0.39-0.366c0.385-0.374,0.752-0.757,1.097-1.15
				c0.041-0.047,0.087-0.091,0.128-0.139c0.377-0.439,0.723-0.891,1.052-1.35c0.097-0.135,0.188-0.271,0.281-0.407
				c0.244-0.357,0.474-0.718,0.692-1.083c0.076-0.127,0.156-0.253,0.228-0.382c0.27-0.475,0.523-0.955,0.753-1.439
				c0.045-0.095,0.084-0.191,0.128-0.287c0.187-0.406,0.361-0.815,0.522-1.225c0.057-0.145,0.113-0.29,0.167-0.435
				c0.161-0.432,0.31-0.865,0.445-1.298c0.021-0.066,0.045-0.133,0.065-0.199c0.153-0.503,0.287-1.004,0.409-1.502
				c0.029-0.118,0.054-0.234,0.081-0.352c0.094-0.406,0.179-0.81,0.254-1.21c0.02-0.105,0.041-0.211,0.06-0.315
				c0.088-0.497,0.165-0.988,0.228-1.469c0.001-0.006,0.001-0.012,0.002-0.018c0.062-0.479,0.11-0.946,0.15-1.404
				c0.007-0.079,0.013-0.158,0.02-0.236c0.076-0.945,0.113-1.843,0.119-2.665c-26.28,0.9-79.206,3.648-86.416,11.295
				c-3.335,3.538-3.591,21.095-2.5,42.549c7.807,18.949,17.617,40.151,25.606,56.874c1.01-24.091,1.518-43.358,1.774-56.651
				c-4.199-16.082-7.069-27.446-7.069-27.446l0,0v0c0,0,7.863,0.682,18.084,0.747c0.689,0.004,1.388,0.006,2.097,0.004
				c0.701-0.002,1.412-0.006,2.129-0.015c1.435-0.017,2.899-0.047,4.379-0.095c2.22-0.072,4.474-0.182,6.721-0.342
				c3.744-0.266,7.464-0.668,10.956-1.255c0.698-0.117,1.388-0.242,2.066-0.375c2.714-0.53,5.256-1.184,7.522-1.988
				C617.175,329.02,617.837,328.739,618.478,328.444z"/>
			<path style="fill:#FCB9A7;" d="M643.632,302.269c0,0,3.8,21.744-14.323,28.118s-61.678,5.536-61.678,5.536
				s-0.844,42.87-4.724,113.998l-10.802,0.779c0,0-19.259-126.508-9.613-136.739S643.632,302.269,643.632,302.269z"/>
			<path style="fill:#FFFFFF;" d="M677.506,75.669c0,0.81-0.656,1.466-1.466,1.466c-0.81,0-1.466-0.657-1.466-1.466
				s0.656-1.466,1.466-1.466C676.849,74.203,677.506,74.859,677.506,75.669z"/>
			<path style="fill:#F7544D;" d="M527.643,52.945c0,0.81-0.656,1.466-1.466,1.466c-0.81,0-1.466-0.657-1.466-1.466
				c0-0.81,0.656-1.466,1.466-1.466C526.987,51.478,527.643,52.135,527.643,52.945z"/>
			<path style="fill:#EB9A37;" d="M580.83,303.16c0,0-48.764-3.566-56.789,7.26s7.55,52.236,6.022,69.57
				c-1.528,17.334-9.874,46.225-9.874,46.225s12.527-3.058,35.632,5.136c4.329,1.535,9.132,2.8,14.164,3.591
				c1.375,0.216,1.626,3.818,3.029,3.959c20.882,2.107,45.577-7.92,55.354-36.762c0,0-42.899-52.645-41.994-57.46
				s66.09,10.852,57.573-38.712"/>
			<g>
				<path style="fill:#8E8D8D;" d="M446.79,172.63l8.441,80.777c0.365,3.32,3.176,5.829,6.516,5.816l74.227-0.282
					c3.539-0.013,6.423-2.844,6.504-6.382l1.916-84.206c0.089-3.899-3.198-7.363-7.082-7.009l-84.585,3.711
					C449.089,165.388,446.391,168.998,446.79,172.63z"/>
				<path style="fill:#B2B2B2;" d="M442.938,172.63l8.441,80.777c0.365,3.32,3.176,5.829,6.516,5.816l74.227-0.282
					c3.539-0.013,6.423-2.844,6.504-6.382l1.916-84.206c0.089-3.899-3.238-7.006-7.121-6.652l-84.584,3.711
					C445.197,165.745,442.539,168.998,442.938,172.63z"/>
				<path style="fill:none;stroke:#E0E0E2;stroke-miterlimit:10;" d="M447.503,175.795l7.651,73.592
					c0.331,3.009,2.879,5.284,5.906,5.272l67.28-0.255c3.208-0.012,5.822-2.577,5.895-5.784l1.737-76.326
					c0.08-3.534-2.935-6.35-6.455-6.029l-76.669,2.99C449.551,169.554,447.141,172.503,447.503,175.795z"/>
				<polygon style="fill:#8E8D8D;" points="477.92,207.737 477.632,274.495 530.063,274.495 529.152,271.57 496.678,271.356 
					502.474,205.871 				"/>
				<polygon style="fill:#7F7E7E;" points="529.152,271.57 496.678,271.356 502.474,205.871 500.301,206.036 494.11,274.495 
					530.063,274.495 				"/>
				<polygon style="opacity:0.43;fill:#E8E8EA;" points="502.474,205.871 501.732,259.223 497.752,259.223 				"/>
			</g>
			
				<linearGradient id="SVGID_00000010995693745816196320000007850118417866880677_" gradientUnits="userSpaceOnUse" x1="552.1552" y1="198.7625" x2="587.2017" y2="228.2753">
				<stop  offset="0" style="stop-color:#FFFFFF;stop-opacity:0"/>
				<stop  offset="1" style="stop-color:#F9ACB2"/>
			</linearGradient>
			<path style="fill:url(#SVGID_00000010995693745816196320000007850118417866880677_);" d="M594.272,237.062l-1.487-30.763
				c-2.072,1.05-1.435,2.63-2.109,3.416c-1.437,11.697-7.674,16.294-8.718,21.103c-1.202,5.54,6.231,12.832,6.231,12.832
				s0.093,4.411-0.4,11.798C591.237,247.314,594.272,237.062,594.272,237.062z"/>
			<path style="fill:#E6584E;" d="M610.308,197.671c0,0-17.409,6.305-20.04,9.373c-1.437,11.697-5.389,16.874-6.433,21.684
				c-1.202,5.54,6.231,12.832,6.231,12.832s0.611,28.122-9.236,61.6c6.458-0.228,30.171,0.829,63.669,7.26
				c3.036-6.616-1.499-81.524-1.499-81.524s-0.083-18.298-1.853-24.25C639.744,199.932,610.308,197.671,610.308,197.671z"/>
			<path style="fill:#FCB9A7;" d="M610.308,198.534c0,0-2.748,0.996-6.223,2.387c-0.33,3.648-1.426,19.001,3.389,19.93
				c5.14,0.992,9.385-14.171,14.166-21.103C615.509,198.935,610.308,198.534,610.308,198.534z"/>
			<path style="fill:#FCB9A7;" d="M620.816,174.329c0,0-3.072,16.62-2.341,25.563c0,0-3.616,11.266-8.619,11.266
				c-3.788,0-3.342-11.272-3.342-11.272l-1.012-8.948L620.816,174.329z"/>
			
				<linearGradient id="SVGID_00000153663182521100686250000009592676294396540556_" gradientUnits="userSpaceOnUse" x1="1709.3926" y1="200.563" x2="1679.3" y2="173.3267" gradientTransform="matrix(1 0 0 1 -1078.6097 0)">
				<stop  offset="0" style="stop-color:#FFFFFF;stop-opacity:0"/>
				<stop  offset="1" style="stop-color:#FF765F"/>
			</linearGradient>
			<path style="fill:url(#SVGID_00000153663182521100686250000009592676294396540556_);" d="M619.713,175.525
				c-0.019-3.202,1.103-1.196,1.103-1.196l-15.314,16.609l0.517,4.57C616.622,190.335,619.713,175.525,619.713,175.525z"/>
			<path style="fill:#FCB9A7;" d="M593.725,154.734c-3.224,11.663-2.365,33.62,3.558,36.104c12.19,5.44,27.685-12.916,30.492-22.998
				c2.806-10.082,2.277-22.575-9.286-25.794C606.925,138.828,596.763,143.743,593.725,154.734z"/>
			<path style="fill:#242235;" d="M611.585,164.585c0,0-1.379-3.271-3.482-3.43C608.103,161.155,612.259,157.489,611.585,164.585z"
				/>
			<path style="fill:#FF5F5F;" d="M598.385,159.228c0,0-1.315-0.924-3.126-0.041C595.26,159.187,597.757,155.047,598.385,159.228z"
				/>
			<path style="fill:#FCB9A7;" d="M623.046,174.136c0,0,6.029-4.934,8.92-1.161c3.368,4.395-5.067,12.453-11.51,4.935"/>
			<path style="fill:none;stroke:#FCE6E6;stroke-width:0.25;stroke-linecap:round;stroke-miterlimit:10;" d="M602.414,219.987
				c0,0,2.933,9.492,10.069,4.698"/>
			<path style="fill:none;stroke:#FCE6E6;stroke-width:0.25;stroke-linecap:round;stroke-miterlimit:10;" d="M620.109,245.789
				c-19.251-3.735-29.432-3.532-29.432-3.532s6.079-0.869,19.912,0.731"/>
			<path style="fill:#DDC7CA;" d="M617.178,242.021c0,0,16.505,5.438,16.861-9.268C634.039,232.753,636.952,255.504,617.178,242.021
				z"/>
			<path style="fill:#FF765F;" d="M620.538,143.137c-25.769-7.071-28.563,16.292-28.563,16.292c2.59,0.696,4.966,1.115,7.148,1.318
				c4.642,2.081,8.843,2.418,12.508,0.992c3.323-1.292,5.641-3.842,7.151-6.135c-0.835,3.52-0.923,8.382,2.815,12.521
				c1.555,3.631,3.295,6.167,3.295,6.167S646.308,150.208,620.538,143.137z M611.434,161.277c-3.154,1.225-6.738,1.069-10.68-0.416
				c10.719,0.496,16.287-4.393,18.434-6.929C617.81,156.427,615.345,159.758,611.434,161.277z M618.858,158.139
				c0.119-1.311,0.401-2.519,0.723-3.563c-0.924,3.996,0.026,8.341,1.369,11.936C619.281,164.127,618.568,161.332,618.858,158.139z"
				/>
			<path style="fill:#C6B3A7;" d="M620.538,141.893c-25.769-7.353-28.563,16.942-28.563,16.942c2.59,0.724,4.966,1.159,7.148,1.371
				c4.642,2.164,8.843,2.515,12.508,1.032c3.323-1.343,5.641-3.996,7.151-6.38c-0.835,3.661-0.923,8.717,2.815,13.021
				c1.555,3.776,3.295,6.413,3.295,6.413S646.308,149.246,620.538,141.893z M611.434,160.758c-3.154,1.274-6.738,1.112-10.68-0.433
				c10.719,0.516,16.287-4.568,18.434-7.205C617.81,155.713,615.345,159.178,611.434,160.758z M618.858,157.494
				c0.119-1.363,0.401-2.62,0.723-3.705c-0.924,4.156,0.026,8.674,1.369,12.413C619.281,163.722,618.568,160.815,618.858,157.494z"
				/>
			<path style="fill:none;stroke:#332A24;stroke-width:0.5;stroke-linecap:round;stroke-miterlimit:10;" d="M608.893,171.383
				c0,0,1.013-5.885-0.338-6.924c-1.351-1.038-3.054,4.847-3.054,4.847"/>
			<path style="fill:none;stroke:#332A24;stroke-width:0.5;stroke-linecap:round;stroke-miterlimit:10;" d="M597.294,168.925
				c0,0,0.549-5.667-0.849-6.23c-1.398-0.562-2.173,6.559-2.173,6.559"/>
			<path style="opacity:0.35;fill:#FFFFFF;" d="M615.167,168.315c-1.018,4.511-4.41,7.589-7.576,6.875
				c-3.166-0.715-4.907-4.951-3.889-9.462c1.018-4.511,4.41-7.589,7.576-6.875C614.444,159.567,616.185,163.803,615.167,168.315z"/>
			<path style="fill:none;stroke:#D82745;stroke-width:0.5;stroke-miterlimit:10;" d="M615.167,168.315
				c-1.018,4.511-4.41,7.589-7.576,6.875c-3.166-0.715-4.907-4.951-3.889-9.462c1.018-4.511,4.41-7.589,7.576-6.875
				C614.444,159.567,616.185,163.803,615.167,168.315z"/>
			<path style="opacity:0.35;fill:#FFFFFF;" d="M599.353,165.042c0.237,4.268-2,7.863-4.996,8.029
				c-2.996,0.166-5.616-3.16-5.853-7.428c-0.237-4.268,2-7.863,4.995-8.029C596.495,157.448,599.116,160.774,599.353,165.042z"/>
			<path style="fill:none;stroke:#D82745;stroke-width:0.5;stroke-miterlimit:10;" d="M599.353,165.042
				c0.237,4.268-2,7.863-4.996,8.029c-2.996,0.166-5.616-3.16-5.853-7.428c-0.237-4.268,2-7.863,4.995-8.029
				C596.495,157.448,599.116,160.774,599.353,165.042z"/>
			<path style="fill:#FCB9A7;" d="M601.865,164.998c0,0-1.355,3.871-4.224,5.541c-0.351,0.204-0.402,0.691-0.112,0.976l1.894,1.864"
				/>
			<path style="fill:none;stroke:#FF765F;stroke-width:0.5;stroke-linecap:round;stroke-miterlimit:10;" d="M601.865,164.998
				c0,0-1.355,3.871-4.224,5.541c-0.351,0.204-0.402,0.691-0.112,0.976l1.894,1.864"/>
			<path style="fill:none;stroke:#D82745;stroke-width:0.5;stroke-miterlimit:10;" d="M599.315,166.736c0,0,1.609-0.484,4.134,0.652
				"/>
			<path style="opacity:0.35;fill:#FFFFFF;" d="M598.604,164.969c-0.245-3.632-2.485-6.445-5.046-6.303
				c-1.479,0.082-2.742,1.135-3.516,2.708L598.604,164.969z"/>
			<path style="opacity:0.35;fill:#FFFFFF;" d="M606.085,162.471l8.287,5.343c0.721-3.722-0.746-7.154-3.368-7.746
				C609.237,159.67,607.393,160.662,606.085,162.471z"/>
			<path style="fill:none;stroke:#FF765F;stroke-width:0.5;stroke-linecap:round;stroke-miterlimit:10;" d="M601.865,178.68
				c0,0,0.782,0.923,0.742,2.046c-0.04,1.124-1.102,0.602-0.37-0.642"/>
			<polygon style="fill:#DB8528;" points="569.985,434.943 546.022,360.089 568.139,434.63 			"/>
			<g>
				<path style="fill:#DB8528;" d="M586.458,345.42c-0.083-0.307-0.117-0.56-0.084-0.74c0.085-0.45,0.731-0.721,1.825-0.883v0
					l-7.6-10.462L586.458,345.42z"/>
				<polygon style="fill:#DB8528;" points="588.199,349.011 588.199,349.012 588.199,349.012 				"/>
			</g>
			<path style="fill:#DB8528;" d="M595.149,303.674c0,0-56.342-0.564-56.984,11.634
				C538.165,315.308,529.991,302.793,595.149,303.674z"/>
			<path style="fill:none;stroke:#FF765F;stroke-width:0.5;stroke-linecap:round;stroke-miterlimit:10;" d="M599.315,185.621
				c0,0,1.205-1.364,2.549-0.602"/>
			<path style="fill:none;stroke:#FF765F;stroke-width:0.25;stroke-linecap:round;stroke-miterlimit:10;" d="M602.237,173.708
				c0,0,3.821,2.724,5.627,8.101"/>
			<path style="fill:none;stroke:#FF765F;stroke-width:0.25;stroke-linecap:round;stroke-miterlimit:10;" d="M598.314,172.621
				c0,0-1.364,2.979-1.846,8.371"/>
			<path style="fill:#444443;" d="M541.536,245.098c0,0.659-0.216,1.193-0.482,1.193c-0.266,0-0.482-0.534-0.482-1.193
				c0-0.659,0.216-1.193,0.482-1.193C541.32,243.905,541.536,244.439,541.536,245.098z"/>
			<path style="fill:#444443;" d="M541.536,240.183c0,0.659-0.216,1.193-0.482,1.193c-0.266,0-0.482-0.534-0.482-1.193
				s0.216-1.193,0.482-1.193C541.32,238.99,541.536,239.524,541.536,240.183z"/>
			<path style="fill:#444443;" d="M623.899,175.906l-1.47,2.091c0,0,0.221,0.843,1.114,1.244l-2.117,2.103l0.361,0.465
				c0,0,6.34-1.884,5.016-5.536C626.803,176.273,625.208,175.822,623.899,175.906z"/>
			<path style="fill:none;stroke:#FF765F;stroke-width:0.5;stroke-linecap:round;stroke-miterlimit:10;" d="M628.895,177.403
				c0,0-2.205-2.17-5.568-1.39"/>
			<path style="fill:none;stroke:#444443;stroke-width:0.25;stroke-linejoin:round;stroke-miterlimit:10;" d="M541.054,240.183
				c0,0,9.465-0.732,22.898,7.874c26.055,16.692,49.538,1.962,43.911-37.397c0,0,5.577-2.906,7.022-12.126
				c1.445-9.221,3.968-14.962,8.025-17.968"/>
			<path style="fill:none;stroke:#444443;stroke-width:0.25;stroke-linejoin:round;stroke-miterlimit:10;" d="M599.315,191.519
				c0,0-0.159,11.837,8.548,19.14"/>
			<path style="fill:#DDC7CA;" d="M610.706,214.974c0.492-0.29,2.917-1.861,4.848-5.497l0.656,0.405c0,0,1.404-3.17,1.806-5.297
				l-0.636-0.081c0.126-0.547,0.241-1.113,0.335-1.711c0.24-1.533,0.513-2.959,0.815-4.299c-0.095-0.011-0.189-0.022-0.284-0.033
				c-0.3,1.339-0.573,2.761-0.812,4.288c-0.094,0.599-0.213,1.167-0.342,1.719l-0.661-0.084c0,0-0.261,2.528-1.585,4.655
				l0.466,0.287c-1.567,2.982-3.525,4.73-4.742,5.397c-5.005-4.24-7.035-10.043-7.86-14.11c-0.089,0.036-0.178,0.073-0.267,0.11
				c0.843,4.119,2.908,9.971,7.975,14.245c2.751,19.318-1.443,34.11-11.514,40.585c-2.893,1.86-6.16,2.93-9.671,3.258
				c-0.009,0.099-0.018,0.197-0.027,0.297c3.576-0.326,6.904-1.418,9.853-3.314C609.217,249.26,613.461,234.385,610.706,214.974z"/>
			<path style="fill:#444443;" d="M612.157,204.801l1.364,0.843c0,0,1.404-3.17,1.806-5.297l-1.585-0.201
				C613.742,200.147,613.481,202.675,612.157,204.801z"/>
			
				<ellipse transform="matrix(0.9239 -0.3827 0.3827 0.9239 -4.6402 147.0245)" style="fill:#D1EDEA;" cx="367.251" cy="85.176" rx="35.337" ry="35.337"/>
			<path style="fill:#FFD77D;" d="M367.251,124.345c-21.598,0-39.168-17.571-39.168-39.168s17.571-39.169,39.168-39.169
				c21.598,0,39.168,17.571,39.168,39.169S388.849,124.345,367.251,124.345z M367.251,47.275c-20.898,0-37.901,17.003-37.901,37.902
				c0,20.898,17.003,37.901,37.901,37.901s37.901-17.003,37.901-37.901C405.153,64.277,388.15,47.275,367.251,47.275z"/>
			<path style="fill:#FFFFFF;" d="M372.882,84.222c0,2.891-2.344,5.235-5.235,5.235c-2.891,0-5.235-2.344-5.235-5.235
				c0-2.891,2.344-5.235,5.235-5.235C370.538,78.987,372.882,81.331,372.882,84.222z"/>
			<polyline style="fill:none;stroke:#FFFFFF;stroke-width:2;stroke-linecap:round;stroke-miterlimit:10;" points="348.71,68.162 
				367.251,85.176 382.302,76.669 			"/>
			<path style="fill:#C98C55;" d="M598.314,281.981h-206.91l-2-5.353c0-1.178,0.955-2.133,2.133-2.133h206.777V281.981z"/>
			<path style="fill:#A37241;" d="M651.189,281.981h-52.875v-7.486h53.364c0.835,0,1.511,0.677,1.511,1.512L651.189,281.981z"/>
			<polygon style="fill:#545352;" points="397.785,281.981 402.666,466.332 406.42,466.332 403.792,281.981 			"/>
			<polygon style="fill:#545352;" points="579.434,281.981 576.107,466.286 579.434,466.286 587.372,281.981 			"/>
			<g>
				<path style="fill:#DDC7CA;" d="M642.742,226.304c0.072,0.112,0.152,0.23,0.23,0.346c-0.087-5.071-0.437-17.334-1.825-22.003
					c-0.09-0.302-0.298-0.594-0.603-0.876c-0.406-0.126-0.65-0.193-0.65-0.193L642.742,226.304z"/>
				<path style="fill:#DDC7CA;" d="M644.286,253.194c-7.812,6.074-16.564,12.669-16.564,12.669l5.025,7.135
					c3.832-1.397,7.999-3.217,12.161-5.285C644.718,262.731,644.502,257.794,644.286,253.194z"/>
			</g>
			<path style="fill:#8E8D8D;" d="M610.715,274.495c0,0,2.041-5.465,11.474-7.366c9.432-1.9,13.022,7.366,13.022,7.366H610.715z"/>
			<polygon style="fill:#545352;" points="641.428,281.981 645.545,466.286 648.937,466.286 647.435,281.981 			"/>
			<path style="fill:#E6584E;" d="M637.923,202.311c0,0,4.82,1.3,8.902,3.988s22.525,28.211,24.777,35.722
				c2.252,7.511-22.947,23.189-40.826,29.71l-5.025-7.135c0,0,27.972-21.076,28.535-22.574s-9.995-11.494-13.515-16.985"/>
			<path style="fill:none;stroke:#FCE6E6;stroke-width:0.25;stroke-linecap:round;stroke-miterlimit:10;" d="M653.189,242.021
				c0,0,1.379-0.513,5.884,0.754"/>
			<polygon style="fill:#DDC7CA;" points="642.992,228.044 639.27,223.816 643.174,231.885 			"/>
			<path style="fill:#B2B2B2;" d="M617.099,268.763c-5.107,2.368-6.384,5.733-6.384,5.733h10.851
				C620.271,270.995,618.371,269.437,617.099,268.763z"/>
			<path style="fill:#DDC7CA;" d="M586.374,303.199c0,0,37.491,1.582,55.799,12.109v-5.328
				C642.173,309.98,609.688,303.8,586.374,303.199z"/>
			<polygon style="fill:#FF9592;" points="625.751,264.596 626.126,265.128 648.361,247.17 			"/>
			<path style="fill:#FCB9A7;" d="M626.126,265.128c0,0-9.71,1.086-15.693,5.591c-5.983,4.505,11.051-2.253,11.051-2.253
				s0.774,3.609,3.872,6.028h8.447c0,0-0.281-1.875-2.816-1.805l-0.211-0.96C630.776,271.731,628.524,264.746,626.126,265.128z"/>
			<polygon style="fill:#B2C466;" points="406.42,250.94 408.672,274.495 423.689,274.495 424.627,249.063 			"/>
			<polygon style="fill:#F7E494;" points="539.128,59.92 539.128,71.305 593.928,73.37 593,59.235 			"/>
			<polygon style="fill:#F7E494;" points="539.128,78.062 539.128,82.943 591.976,83.881 591.872,79.189 			"/>
			<path style="fill:none;stroke:#F4B253;stroke-miterlimit:10;" d="M648.887,85.916l1.329,38.709
				c0.072,2.106,1.766,3.795,3.872,3.861l39.831,1.257c2.213,0.07,4.061-1.671,4.125-3.884l1.172-40.7
				c0.066-2.281-1.787-4.155-4.068-4.115l-42.331,0.734C650.58,81.817,648.81,83.681,648.887,85.916z"/>
			<polygon style="fill:#545352;" points="615.994,370.101 615.994,377.736 624.441,378.111 625.098,369.101 			"/>
			<path style="fill:#545352;" d="M590.748,466.286h44.299C635.046,466.286,612.146,457.886,590.748,466.286z"/>
		</g>
	</g>
</g>
</svg>
